<svg version="1.1" id="Layer_1" xmlns="http://www.w3.org/2000/svg" xmlns:xlink="http://www.w3.org/1999/xlink" x="0px" y="0px"
	 width="100%" viewBox="0 0 1346 1312" enable-background="new 0 0 1346 1312" xml:space="preserve">
<path fill="#FFFFFF" opacity="1.000000" stroke="none" 
	d="
M1347.000000,502.000000 
	C1347.000000,772.666626 1347.000000,1042.833252 1347.000000,1313.000000 
	C898.333435,1313.000000 449.666931,1313.000000 1.000289,1313.000000 
	C1.000193,875.666870 1.000193,438.333740 1.000096,1.000465 
	C449.666382,1.000310 898.332764,1.000310 1346.999512,1.000155 
	C1347.000000,167.833328 1347.000000,334.666656 1347.000000,502.000000 
M1179.223999,58.172001 
	C1166.897095,56.445858 1154.571655,53.223370 1142.243164,53.212341 
	C831.432861,52.934193 520.622070,52.944908 209.811676,53.184681 
	C198.284607,53.193573 186.455032,54.835987 175.284348,57.721874 
	C113.014610,73.808876 70.037811,130.001221 70.034050,194.415329 
	C70.016022,502.559448 69.997780,810.703552 70.026352,1118.847656 
	C70.026978,1125.664673 70.141068,1132.534790 70.953003,1139.289917 
	C76.308029,1183.842163 97.902855,1218.521973 135.406464,1243.015503 
	C159.352081,1258.654175 185.911789,1265.199097 214.537384,1265.185547 
	C522.181519,1265.039307 829.825745,1265.094849 1137.469971,1265.091187 
	C1140.636230,1265.091187 1143.805664,1265.122559 1146.968262,1265.000610 
	C1174.508789,1263.937378 1199.762329,1255.646606 1222.012329,1239.489014 
	C1262.310547,1210.225464 1282.155029,1170.396606 1282.148438,1120.520874 
	C1282.107544,812.710022 1282.149658,504.899231 1282.111206,197.088394 
	C1282.110474,190.609589 1281.798340,184.095001 1281.084717,177.657715 
	C1274.848633,121.403900 1234.813843,74.268234 1179.223999,58.172001 
z"/>
<path fill="#6569F6" opacity="1.000000" stroke="none" 
	d="
M1179.606201,58.308231 
	C1234.813843,74.268234 1274.848633,121.403900 1281.084717,177.657715 
	C1281.798340,184.095001 1282.110474,190.609589 1282.111206,197.088394 
	C1282.149658,504.899231 1282.107544,812.710022 1282.148438,1120.520874 
	C1282.155029,1170.396606 1262.310547,1210.225464 1222.012329,1239.489014 
	C1199.762329,1255.646606 1174.508789,1263.937378 1146.968262,1265.000610 
	C1143.805664,1265.122559 1140.636230,1265.091187 1137.469971,1265.091187 
	C829.825745,1265.094849 522.181519,1265.039307 214.537384,1265.185547 
	C185.911789,1265.199097 159.352081,1258.654175 135.406464,1243.015503 
	C97.902855,1218.521973 76.308029,1183.842163 70.953003,1139.289917 
	C70.141068,1132.534790 70.026978,1125.664673 70.026352,1118.847656 
	C69.997780,810.703552 70.016022,502.559448 70.034050,194.415329 
	C70.037811,130.001221 113.014610,73.808876 175.284348,57.721874 
	C186.455032,54.835987 198.284607,53.193573 209.811676,53.184681 
	C520.622070,52.944908 831.432861,52.934193 1142.243164,53.212341 
	C1154.571655,53.223370 1166.897095,56.445858 1179.606201,58.308231 
M1115.081787,391.105530 
	C1115.081787,379.559082 1115.081787,368.012665 1115.081787,355.050110 
	C1105.673950,361.781891 1097.150146,367.287598 1089.290283,373.617706 
	C1066.750000,391.771118 1044.284912,410.118896 1040.214478,441.549561 
	C1028.469604,441.549561 1016.797302,441.549561 1004.135742,441.549561 
	C1024.943604,416.532471 1045.125366,392.268005 1065.541504,367.721924 
	C1053.520630,355.745178 1041.008057,344.820465 1030.418823,332.272583 
	C1020.802490,320.877594 1009.994324,315.581573 995.445312,318.270172 
	C993.057007,318.711517 990.235901,319.652466 988.680298,321.342957 
	C946.830017,366.821564 905.205933,412.508545 863.273865,457.911194 
	C858.073242,463.542267 853.751587,468.833313 854.994568,477.589386 
	C854.988220,478.241821 854.981873,478.894287 854.587219,480.144775 
	C830.061279,516.236267 804.968384,551.957886 781.130249,588.498047 
	C734.950684,659.283936 691.136597,731.444519 658.763367,809.898315 
	C658.239807,811.167114 656.707092,812.707825 655.483154,812.865845 
	C652.255188,813.282471 648.937805,813.006714 645.110352,813.006714 
	C645.110352,810.624023 645.110352,808.836975 645.110352,807.049866 
	C645.110352,792.383606 645.647888,777.690063 644.906128,763.061462 
	C644.470215,754.464600 646.488647,747.863708 653.491455,742.841858 
	C654.633362,742.023010 655.458862,740.762878 657.271179,738.793091 
	C648.524292,738.793091 640.840576,738.793091 632.893982,738.793091 
	C632.893982,736.117432 632.893982,734.127747 632.893982,732.138123 
	C632.893982,698.805725 632.966187,665.472778 632.754272,632.141785 
	C632.737671,629.531921 631.237122,626.533875 629.542480,624.427246 
	C627.113770,621.408142 623.870911,619.044006 620.975647,616.400269 
	C621.247375,615.935181 621.519165,615.470154 621.790894,615.005127 
	C625.337280,615.005127 628.883606,615.005127 632.581909,615.005127 
	C632.475708,613.759033 632.461243,613.100037 632.358643,612.455017 
	C627.627258,582.710388 623.087769,552.933533 618.110352,523.229980 
	C605.783447,449.667236 591.229980,376.553009 571.816528,304.502167 
	C564.544617,277.513214 555.983398,250.870422 547.870300,224.112122 
	C547.327881,222.322952 545.677368,219.586624 544.410522,219.511475 
	C537.011597,219.072586 529.573486,219.296295 521.646240,219.296295 
	C521.646240,232.001282 521.646240,243.935608 521.646240,256.055420 
	C517.353699,256.055420 513.592285,256.055420 509.623688,256.055420 
	C509.446655,254.683899 509.201111,253.562653 509.171021,252.435654 
	C508.130890,213.527115 488.945282,187.194107 453.354309,172.539215 
	C424.496216,160.656631 394.069244,157.901306 363.231079,157.997742 
	C362.819305,157.999023 362.408630,158.365479 361.649963,158.727127 
	C362.291870,160.833801 362.867645,162.887360 363.541016,164.908356 
	C370.488007,185.757935 377.538330,206.573929 384.297638,227.484055 
	C385.136902,230.080429 385.146790,233.378845 384.355011,235.992722 
	C381.081482,246.799515 377.351685,257.468109 373.674530,268.533417 
	C383.370331,270.009125 389.200653,276.227722 393.278259,283.856445 
	C397.733643,292.192047 401.913696,300.816406 404.949463,309.744781 
	C418.364960,349.200470 424.679199,390.223785 429.709045,431.358368 
	C434.879761,473.645172 439.255005,516.060791 442.631653,558.527039 
	C446.472076,606.826355 449.031158,655.232483 451.742554,703.614868 
	C453.466583,734.378601 454.680695,765.175903 455.719147,795.971802 
	C457.291290,842.593018 458.775146,889.220520 459.781738,935.856384 
	C460.382202,963.676941 460.068176,991.518982 459.931396,1019.350220 
	C459.920013,1021.667969 458.541138,1024.303467 457.056427,1026.215942 
	C454.635010,1029.335205 451.602509,1031.979980 448.103027,1035.568115 
	C452.749084,1035.788086 455.951538,1035.939575 459.670441,1036.115601 
	C458.918823,1038.712891 458.431152,1040.620605 457.815979,1042.486328 
	C454.844604,1051.498535 451.791656,1060.484253 448.887360,1069.517822 
	C448.343994,1071.207764 447.849670,1073.169800 448.173889,1074.843262 
	C451.845245,1093.793457 455.647919,1112.718506 459.550873,1131.622314 
	C459.791443,1132.787354 461.153015,1134.607178 462.020599,1134.623047 
	C474.049286,1134.844360 486.984467,1137.692505 494.894409,1124.498291 
	C494.978027,1124.358887 495.125092,1124.258789 495.235291,1124.134033 
	C497.895264,1121.118164 498.211945,1110.301025 494.984558,1107.992188 
	C485.561188,1101.250488 483.462006,1092.115601 484.866211,1081.390869 
	C485.209503,1078.769165 485.256989,1076.012207 484.856445,1073.407227 
	C483.408691,1063.990967 486.591278,1056.852905 494.110443,1050.967163 
	C498.938538,1047.187866 502.916290,1042.322144 507.275146,1037.943359 
	C507.625763,1038.192383 507.976379,1038.441406 508.326965,1038.690308 
	C505.293060,1047.806152 501.889069,1056.821045 499.367432,1066.076416 
	C497.912933,1071.414917 497.412415,1077.136841 497.353638,1082.695312 
	C497.301300,1087.642578 498.196838,1092.649414 499.111969,1097.548340 
	C502.380035,1115.043091 509.266357,1130.616455 523.549011,1142.099609 
	C532.420471,1149.231934 542.590698,1153.492065 553.587463,1156.189819 
	C571.468201,1160.576782 589.567139,1158.818115 607.426025,1159.244873 
	C608.353088,1152.138062 608.845703,1145.662842 610.090393,1139.335693 
	C613.551697,1121.741211 624.713867,1111.184448 640.848450,1110.195190 
	C643.032227,1110.061279 646.286621,1110.815186 647.388733,1112.348511 
	C653.764038,1121.218872 662.310547,1123.679443 672.592285,1122.203247 
	C674.225281,1121.968872 675.941101,1122.004395 677.583252,1122.205078 
	C680.983459,1122.620361 682.886719,1121.331909 684.590637,1118.211060 
	C700.394592,1089.263794 716.398376,1060.425293 732.350159,1031.558594 
	C789.630310,927.903503 846.896973,824.240967 904.206177,720.601929 
	C917.344238,696.842712 929.387451,672.361755 944.095825,649.610229 
	C980.735229,592.935120 1019.446228,537.663635 1064.118652,486.877045 
	C1082.298828,466.208679 1101.327393,446.368652 1124.721924,431.332916 
	C1125.754883,430.669037 1127.156372,429.466919 1127.170166,428.497955 
	C1127.339233,416.727905 1127.279785,404.954559 1127.279785,392.709442 
	C1123.332153,392.900818 1119.703857,393.076752 1115.901123,392.754761 
	C1115.649902,392.518616 1115.398682,392.282471 1115.081787,391.105530 
M806.807251,486.337189 
	C826.081787,460.621368 845.227966,434.807465 864.738037,409.271637 
	C868.683105,404.108185 867.835205,399.051727 867.512207,392.962830 
	C866.265015,393.976013 865.594116,394.445374 865.010803,395.005829 
	C842.524658,416.610107 821.210266,439.285187 802.144653,464.003815 
	C784.485596,486.898926 768.894897,511.072784 757.848755,537.896362 
	C756.154297,542.011230 756.470764,546.954224 755.857178,551.514221 
	C756.426392,551.650085 756.995605,551.786011 757.564880,551.921936 
	C773.825195,530.242004 790.085510,508.562103 806.807251,486.337189 
M935.783020,314.271820 
	C916.392029,327.837433 903.875427,346.822052 892.867004,367.272827 
	C901.039734,369.302460 906.410156,366.817169 911.621155,361.236603 
	C923.527100,348.486206 935.815369,336.038757 948.659790,324.242981 
	C954.526978,318.854858 954.683655,313.155457 953.666382,305.278656 
	C947.562256,308.324005 941.979370,311.109375 935.783020,314.271820 
M722.835388,636.487976 
	C724.129639,635.192749 725.516113,633.975708 726.696716,632.584045 
	C728.481384,630.480286 731.500000,628.312744 731.594177,626.071411 
	C732.087830,614.331909 731.824890,602.560608 731.824890,590.266663 
	C729.276489,590.266663 727.282166,590.517700 725.375000,590.216736 
	C720.764465,589.489197 718.604736,591.279053 717.320374,595.837524 
	C714.751831,604.953735 711.160950,613.785095 708.669861,622.918884 
	C707.228638,628.203369 707.107727,633.847900 706.281555,640.181824 
	C712.541077,639.136169 718.103455,642.185547 722.835388,636.487976 
M684.231506,682.763550 
	C690.518188,674.363220 696.424744,665.637939 703.228210,657.679382 
	C707.598877,652.566650 707.130798,647.312805 706.772522,640.670105 
	C705.204712,642.482605 704.195129,643.519714 703.332336,644.667175 
	C693.424561,657.843750 683.803467,671.248352 673.518555,684.122925 
	C669.365417,689.321838 669.776978,694.499329 670.238647,701.306580 
	C675.232666,694.705444 679.528198,689.027466 684.231506,682.763550 
z"/>
<path fill="#FFFFFF" opacity="1.000000" stroke="none" 
	d="
M855.025391,476.933990 
	C853.751587,468.833313 858.073242,463.542267 863.273865,457.911194 
	C905.205933,412.508545 946.830017,366.821564 988.680298,321.342957 
	C990.235901,319.652466 993.057007,318.711517 995.445312,318.270172 
	C1009.994324,315.581573 1020.802490,320.877594 1030.418823,332.272583 
	C1041.008057,344.820465 1053.520630,355.745178 1065.541504,367.721924 
	C1045.125366,392.268005 1024.943604,416.532471 1004.135742,441.549561 
	C1016.797302,441.549561 1028.469604,441.549561 1040.214478,441.549561 
	C1044.284912,410.118896 1066.750000,391.771118 1089.290283,373.617706 
	C1097.150146,367.287598 1105.673950,361.781891 1115.081787,355.050110 
	C1115.081787,368.012665 1115.081787,379.559082 1114.747314,391.757263 
	C1113.106201,392.626495 1111.800293,392.848022 1110.492920,393.060852 
	C1098.591187,394.998444 1086.884277,397.614990 1077.131226,405.261749 
	C1069.411865,411.313995 1065.343018,419.249573 1065.725708,429.437012 
	C1074.071289,429.437012 1081.946899,429.437012 1089.955811,429.437012 
	C1090.181641,428.144867 1090.470703,427.180878 1090.502319,426.208527 
	C1091.060181,409.031891 1099.006104,397.607483 1116.075562,393.252655 
	C1119.703857,393.076752 1123.332153,392.900818 1127.279785,392.709442 
	C1127.279785,404.954559 1127.339233,416.727905 1127.170166,428.497955 
	C1127.156372,429.466919 1125.754883,430.669037 1124.721924,431.332916 
	C1101.327393,446.368652 1082.298828,466.208679 1064.118652,486.877045 
	C1019.446228,537.663635 980.735229,592.935120 944.095825,649.610229 
	C929.387451,672.361755 917.344238,696.842712 904.206177,720.601929 
	C846.896973,824.240967 789.630310,927.903503 732.350159,1031.558594 
	C716.398376,1060.425293 700.394592,1089.263794 684.590637,1118.211060 
	C682.886719,1121.331909 680.983459,1122.620361 677.583252,1122.205078 
	C675.941101,1122.004395 674.225281,1121.968872 672.592285,1122.203247 
	C662.310547,1123.679443 653.764038,1121.218872 647.388733,1112.348511 
	C646.286621,1110.815186 643.032227,1110.061279 640.848450,1110.195190 
	C624.713867,1111.184448 613.551697,1121.741211 610.090393,1139.335693 
	C608.845703,1145.662842 608.353088,1152.138062 607.426025,1159.244873 
	C589.567139,1158.818115 571.468201,1160.576782 553.587463,1156.189819 
	C542.590698,1153.492065 532.420471,1149.231934 523.549011,1142.099609 
	C509.266357,1130.616455 502.380035,1115.043091 499.111969,1097.548340 
	C498.196838,1092.649414 497.301300,1087.642578 497.353638,1082.695312 
	C497.412415,1077.136841 497.912933,1071.414917 499.367432,1066.076416 
	C501.889069,1056.821045 505.293060,1047.806152 508.326965,1038.690308 
	C507.976379,1038.441406 507.625763,1038.192383 507.275146,1037.943359 
	C502.916290,1042.322144 498.938538,1047.187866 494.110443,1050.967163 
	C486.591278,1056.852905 483.408691,1063.990967 484.856445,1073.407227 
	C485.256989,1076.012207 485.209503,1078.769165 484.866211,1081.390869 
	C483.462006,1092.115601 485.561188,1101.250488 494.984558,1107.992188 
	C498.211945,1110.301025 497.895264,1121.118164 495.235291,1124.134033 
	C495.125092,1124.258789 494.978027,1124.358887 494.894409,1124.498291 
	C486.984467,1137.692505 474.049286,1134.844360 462.020599,1134.623047 
	C461.153015,1134.607178 459.791443,1132.787354 459.550873,1131.622314 
	C455.647919,1112.718506 451.845245,1093.793457 448.173889,1074.843262 
	C447.849670,1073.169800 448.343994,1071.207764 448.887360,1069.517822 
	C451.791656,1060.484253 454.844604,1051.498535 457.815979,1042.486328 
	C458.431152,1040.620605 458.918823,1038.712891 459.670441,1036.115601 
	C455.951538,1035.939575 452.749084,1035.788086 448.103027,1035.568115 
	C451.602509,1031.979980 454.635010,1029.335205 457.056427,1026.215942 
	C458.541138,1024.303467 459.920013,1021.667969 459.931396,1019.350220 
	C460.068176,991.518982 460.382202,963.676941 459.781738,935.856384 
	C458.775146,889.220520 457.291290,842.593018 455.719147,795.971802 
	C454.680695,765.175903 453.466583,734.378601 451.742554,703.614868 
	C449.031158,655.232483 446.472076,606.826355 442.631653,558.527039 
	C439.255005,516.060791 434.879761,473.645172 429.709045,431.358368 
	C424.679199,390.223785 418.364960,349.200470 404.949463,309.744781 
	C401.913696,300.816406 397.733643,292.192047 393.278259,283.856445 
	C389.200653,276.227722 383.370331,270.009125 373.674530,268.533417 
	C377.351685,257.468109 381.081482,246.799515 384.355011,235.992722 
	C385.146790,233.378845 385.136902,230.080429 384.297638,227.484055 
	C377.538330,206.573929 370.488007,185.757935 363.541016,164.908356 
	C362.867645,162.887360 362.291870,160.833801 361.649963,158.727127 
	C362.408630,158.365479 362.819305,157.999023 363.231079,157.997742 
	C394.069244,157.901306 424.496216,160.656631 453.354309,172.539215 
	C488.945282,187.194107 508.130890,213.527115 509.171021,252.435654 
	C509.201111,253.562653 509.446655,254.683899 509.623688,256.055420 
	C513.592285,256.055420 517.353699,256.055420 521.646240,256.055420 
	C521.646240,243.935608 521.646240,232.001282 521.646240,219.296295 
	C529.573486,219.296295 537.011597,219.072586 544.410522,219.511475 
	C545.677368,219.586624 547.327881,222.322952 547.870300,224.112122 
	C555.983398,250.870422 564.544617,277.513214 571.816528,304.502167 
	C591.229980,376.553009 605.783447,449.667236 618.110352,523.229980 
	C623.087769,552.933533 627.627258,582.710388 632.358643,612.455017 
	C632.461243,613.100037 632.475708,613.759033 632.581909,615.005127 
	C628.883606,615.005127 625.337280,615.005127 621.790894,615.005127 
	C621.519165,615.470154 621.247375,615.935181 620.975647,616.400269 
	C623.870911,619.044006 627.113770,621.408142 629.542480,624.427246 
	C631.237122,626.533875 632.737671,629.531921 632.754272,632.141785 
	C632.966187,665.472778 632.893982,698.805725 632.893982,732.138123 
	C632.893982,734.127747 632.893982,736.117432 632.893982,738.793091 
	C640.840576,738.793091 648.524292,738.793091 657.271179,738.793091 
	C655.458862,740.762878 654.633362,742.023010 653.491455,742.841858 
	C646.488647,747.863708 644.470215,754.464600 644.906128,763.061462 
	C645.647888,777.690063 645.110352,792.383606 645.110352,807.049866 
	C645.110352,808.836975 645.110352,810.624023 645.110352,813.006714 
	C648.937805,813.006714 652.255188,813.282471 655.483154,812.865845 
	C656.707092,812.707825 658.239807,811.167114 658.763367,809.898315 
	C691.136597,731.444519 734.950684,659.283936 781.130249,588.498047 
	C804.968384,551.957886 830.061279,516.236267 855.124268,479.962280 
	C859.586670,483.527405 863.512024,487.275055 867.836487,491.403717 
	C876.044006,479.061890 884.039062,467.039520 892.242065,454.704559 
	C884.607544,453.358887 878.884033,454.174133 874.136536,460.079132 
	C869.793640,465.480713 864.476318,470.116364 859.423035,474.915405 
	C858.316284,475.966431 856.509705,476.280548 855.025391,476.933990 
M497.105560,748.495972 
	C497.105560,708.274719 497.105560,668.053406 497.105560,627.757690 
	C492.680054,627.757690 488.959961,627.757690 485.263977,627.757690 
	C485.263977,673.181824 485.263977,718.217041 485.263977,763.323730 
	C489.338470,763.323730 493.057281,763.323730 497.105652,763.323730 
	C497.105652,758.456909 497.105652,753.975464 497.105560,748.495972 
M712.495911,945.004150 
	C714.644165,938.475098 716.792419,931.945984 719.263000,924.437256 
	C711.921692,926.340332 706.830688,929.843506 702.217102,934.178284 
	C690.367798,945.311951 682.549622,959.186523 675.645264,973.636108 
	C669.158752,987.211182 669.249207,987.254089 680.750000,997.116577 
	C681.001770,997.332520 681.219360,997.748962 681.478821,997.771362 
	C685.382385,998.107117 689.352844,998.891968 693.163025,998.415161 
	C694.475281,998.251038 695.741333,995.030457 696.430786,993.002869 
	C701.777588,977.279297 706.978027,961.505981 712.495911,945.004150 
M976.833923,482.084869 
	C977.843811,477.266418 978.853699,472.447968 979.862732,467.633484 
	C967.862793,465.524048 967.057068,465.885162 961.992249,474.343689 
	C952.237427,490.634399 942.454041,506.908020 932.701355,523.200073 
	C931.740784,524.804626 930.911682,526.488037 929.864197,528.426086 
	C941.388916,529.302612 941.384399,529.299194 947.572632,521.052368 
	C957.169922,508.262390 966.774048,495.477570 976.833923,482.084869 
M484.941467,573.498413 
	C484.941467,558.610352 484.941467,543.722290 484.941467,528.382996 
	C482.278900,528.382996 480.284790,528.602234 478.356354,528.339539 
	C473.650146,527.698364 472.067902,529.359741 472.170044,534.285034 
	C472.487030,549.573730 472.286072,564.873047 472.286072,580.168274 
	C472.286072,591.526733 472.286377,591.530029 483.756073,590.411438 
	C484.047607,590.383057 484.312317,590.079529 484.941437,589.681885 
	C484.941437,584.768311 484.941437,579.632874 484.941467,573.498413 
M758.656555,860.156311 
	C751.009949,867.803833 743.667114,875.791931 735.609253,882.978394 
	C730.293579,887.719299 731.441101,892.896912 732.007507,899.543152 
	C742.963562,888.544189 752.839050,877.957214 763.489319,868.217529 
	C768.937744,863.234924 769.760559,857.976013 768.518250,851.602722 
	C768.015991,851.145081 767.513794,850.687439 767.011597,850.229736 
	C764.393494,853.371948 761.775452,856.514099 758.656555,860.156311 
z"/>
<path fill="#FBFBFF" opacity="1.000000" stroke="none" 
	d="
M806.576538,486.609680 
	C790.085510,508.562103 773.825195,530.242004 757.564880,551.921936 
	C756.995605,551.786011 756.426392,551.650085 755.857178,551.514221 
	C756.470764,546.954224 756.154297,542.011230 757.848755,537.896362 
	C768.894897,511.072784 784.485596,486.898926 802.144653,464.003815 
	C821.210266,439.285187 842.524658,416.610107 865.010803,395.005829 
	C865.594116,394.445374 866.265015,393.976013 867.512207,392.962830 
	C867.835205,399.051727 868.683105,404.108185 864.738037,409.271637 
	C845.227966,434.807465 826.081787,460.621368 806.576538,486.609680 
z"/>
<path fill="#FCFCFF" opacity="1.000000" stroke="none" 
	d="
M936.089722,314.083252 
	C941.979370,311.109375 947.562256,308.324005 953.666382,305.278656 
	C954.683655,313.155457 954.526978,318.854858 948.659790,324.242981 
	C935.815369,336.038757 923.527100,348.486206 911.621155,361.236603 
	C906.410156,366.817169 901.039734,369.302460 892.867004,367.272827 
	C903.875427,346.822052 916.392029,327.837433 936.089722,314.083252 
z"/>
<path fill="#FAFBFF" opacity="1.000000" stroke="none" 
	d="
M722.569519,636.749084 
	C718.103455,642.185547 712.541077,639.136169 706.281555,640.181824 
	C707.107727,633.847900 707.228638,628.203369 708.669861,622.918884 
	C711.160950,613.785095 714.751831,604.953735 717.320374,595.837524 
	C718.604736,591.279053 720.764465,589.489197 725.375000,590.216736 
	C727.282166,590.517700 729.276489,590.266663 731.824890,590.266663 
	C731.824890,602.560608 732.087830,614.331909 731.594177,626.071411 
	C731.500000,628.312744 728.481384,630.480286 726.696716,632.584045 
	C725.516113,633.975708 724.129639,635.192749 722.569519,636.749084 
z"/>
<path fill="#6C70F6" opacity="1.000000" stroke="none" 
	d="
M1115.988281,393.003723 
	C1099.006104,397.607483 1091.060181,409.031891 1090.502319,426.208527 
	C1090.470703,427.180878 1090.181641,428.144867 1089.955811,429.437012 
	C1081.946899,429.437012 1074.071289,429.437012 1065.725708,429.437012 
	C1065.343018,419.249573 1069.411865,411.313995 1077.131226,405.261749 
	C1086.884277,397.614990 1098.591187,394.998444 1110.492920,393.060852 
	C1111.800293,392.848022 1113.106201,392.626495 1114.780151,392.227661 
	C1115.398682,392.282471 1115.649902,392.518616 1115.988281,393.003723 
z"/>
<path fill="#6A6EF6" opacity="1.000000" stroke="none" 
	d="
M855.010010,477.261688 
	C856.509705,476.280548 858.316284,475.966431 859.423035,474.915405 
	C864.476318,470.116364 869.793640,465.480713 874.136536,460.079132 
	C878.884033,454.174133 884.607544,453.358887 892.242065,454.704559 
	C884.039062,467.039520 876.044006,479.061890 867.836487,491.403717 
	C863.512024,487.275055 859.586670,483.527405 855.318359,479.663239 
	C854.981873,478.894287 854.988220,478.241821 855.010010,477.261688 
z"/>
<path fill="#F8F8FE" opacity="1.000000" stroke="none" 
	d="
M684.027588,683.056519 
	C679.528198,689.027466 675.232666,694.705444 670.238647,701.306580 
	C669.776978,694.499329 669.365417,689.321838 673.518555,684.122925 
	C683.803467,671.248352 693.424561,657.843750 703.332336,644.667175 
	C704.195129,643.519714 705.204712,642.482605 706.772522,640.670105 
	C707.130798,647.312805 707.598877,652.566650 703.228210,657.679382 
	C696.424744,665.637939 690.518188,674.363220 684.027588,683.056519 
z"/>
<path fill="#6569F6" opacity="1.000000" stroke="none" 
	d="
M497.105591,748.994995 
	C497.105652,753.975464 497.105652,758.456909 497.105652,763.323730 
	C493.057281,763.323730 489.338470,763.323730 485.263977,763.323730 
	C485.263977,718.217041 485.263977,673.181824 485.263977,627.757690 
	C488.959961,627.757690 492.680054,627.757690 497.105560,627.757690 
	C497.105560,668.053406 497.105560,708.274719 497.105591,748.994995 
z"/>
<path fill="#686CF6" opacity="1.000000" stroke="none" 
	d="
M712.359863,945.376099 
	C706.978027,961.505981 701.777588,977.279297 696.430786,993.002869 
	C695.741333,995.030457 694.475281,998.251038 693.163025,998.415161 
	C689.352844,998.891968 685.382385,998.107117 681.478821,997.771362 
	C681.219360,997.748962 681.001770,997.332520 680.750000,997.116577 
	C669.249207,987.254089 669.158752,987.211182 675.645264,973.636108 
	C682.549622,959.186523 690.367798,945.311951 702.217102,934.178284 
	C706.830688,929.843506 711.921692,926.340332 719.263000,924.437256 
	C716.792419,931.945984 714.644165,938.475098 712.359863,945.376099 
z"/>
<path fill="#696DF6" opacity="1.000000" stroke="none" 
	d="
M976.604553,482.387695 
	C966.774048,495.477570 957.169922,508.262390 947.572632,521.052368 
	C941.384399,529.299194 941.388916,529.302612 929.864197,528.426086 
	C930.911682,526.488037 931.740784,524.804626 932.701355,523.200073 
	C942.454041,506.908020 952.237427,490.634399 961.992249,474.343689 
	C967.057068,465.885162 967.862793,465.524048 979.862732,467.633484 
	C978.853699,472.447968 977.843811,477.266418 976.604553,482.387695 
z"/>
<path fill="#6D70F6" opacity="1.000000" stroke="none" 
	d="
M484.941467,573.997925 
	C484.941437,579.632874 484.941437,584.768311 484.941437,589.681885 
	C484.312317,590.079529 484.047607,590.383057 483.756073,590.411438 
	C472.286377,591.530029 472.286072,591.526733 472.286072,580.168274 
	C472.286072,564.873047 472.487030,549.573730 472.170044,534.285034 
	C472.067902,529.359741 473.650146,527.698364 478.356354,528.339539 
	C480.284790,528.602234 482.278900,528.382996 484.941467,528.382996 
	C484.941467,543.722290 484.941467,558.610352 484.941467,573.997925 
z"/>
<path fill="#6F73F6" opacity="1.000000" stroke="none" 
	d="
M758.906982,859.906250 
	C761.775452,856.514099 764.393494,853.371948 767.011597,850.229736 
	C767.513794,850.687439 768.015991,851.145081 768.518250,851.602722 
	C769.760559,857.976013 768.937744,863.234924 763.489319,868.217529 
	C752.839050,877.957214 742.963562,888.544189 732.007507,899.543152 
	C731.441101,892.896912 730.293579,887.719299 735.609253,882.978394 
	C743.667114,875.791931 751.009949,867.803833 758.906982,859.906250 
z"/>
</svg>
